<svg version="1.1" xmlns="http://www.w3.org/2000/svg" width="160" height="40" style=""><path fill="#" d="M16.435546875,18.251953125q0-1.455078125,1.62109375-1.455078125t1.62109375,1.455078125q0,0.693359375-0.4052734375,1.0791015625t-1.2158203125,0.3857421875q-1.62109375,0-1.62109375-1.46484375z M19.541015625,31.9921875l-2.978515625,0l0-10.91796875l2.978515625,0l0,10.91796875z M27.01923828125,31.9921875l-2.978515625,0l0-15.1953125l2.978515625,0l0,15.1953125z M34.4974609375,31.9921875l-2.978515625,0l0-15.1953125l2.978515625,0l0,15.1953125z M46.73154296875,31.9921875l-0.400390625-1.396484375l-0.15625,0q-0.478515625,0.76171875-1.357421875,1.1767578125t-2.001953125,0.4150390625q-1.923828125,0-2.900390625-1.0302734375t-0.9765625-2.9638671875l0-7.119140625l2.978515625,0l0,6.376953125q0,1.181640625,0.419921875,1.7724609375t1.337890625,0.5908203125q1.25,0,1.806640625-0.8349609375t0.556640625-2.7685546875l0-5.13671875l2.978515625,0l0,10.91796875l-2.28515625,0z M63.291796875,31.9921875l-2.978515625,0l0-6.376953125q0-1.181640625-0.3955078125-1.7724609375t-1.2451171875-0.5908203125q-1.142578125,0-1.66015625,0.83984375t-0.517578125,2.763671875l0,5.13671875l-2.978515625,0l0-10.91796875l2.275390625,0l0.400390625,1.396484375l0.166015625,0q0.439453125-0.751953125,1.26953125-1.1767578125t1.904296875-0.4248046875q2.451171875,0,3.3203125,1.6015625l0.263671875,0q0.439453125-0.76171875,1.2939453125-1.181640625t1.9287109375-0.419921875q1.85546875,0,2.8076171875,0.9521484375t0.9521484375,3.0517578125l0,7.119140625l-2.98828125,0l0-6.376953125q0-1.181640625-0.3955078125-1.7724609375t-1.2451171875-0.5908203125q-1.09375,0-1.6357421875,0.78125t-0.5419921875,2.48046875l0,5.478515625z M74.40283203125,18.251953125q0-1.455078125,1.62109375-1.455078125t1.62109375,1.455078125q0,0.693359375-0.4052734375,1.0791015625t-1.2158203125,0.3857421875q-1.62109375,0-1.62109375-1.46484375z M77.50830078125,31.9921875l-2.978515625,0l0-10.91796875l2.978515625,0l0,10.91796875z M92.0861328125,31.9921875l-2.978515625,0l0-6.376953125q0-1.181640625-0.419921875-1.7724609375t-1.337890625-0.5908203125q-1.25,0-1.806640625,0.8349609375t-0.556640625,2.7685546875l0,5.13671875l-2.978515625,0l0-10.91796875l2.275390625,0l0.400390625,1.396484375l0.166015625,0q0.498046875-0.791015625,1.3720703125-1.1962890625t1.9873046875-0.4052734375q1.904296875,0,2.890625,1.0302734375t0.986328125,2.9736328125l0,7.119140625z M103.46083984375,31.9921875l-0.576171875-1.484375l-0.078125,0q-0.751953125,0.947265625-1.5478515625,1.3134765625t-2.0751953125,0.3662109375q-1.572265625,0-2.4755859375-0.8984375t-0.9033203125-2.55859375q0-1.73828125,1.2158203125-2.5634765625t3.6669921875-0.9130859375l1.89453125-0.05859375l0-0.478515625q0-1.66015625-1.69921875-1.66015625q-1.30859375,0-3.076171875,0.791015625l-0.986328125-2.01171875q1.884765625-0.986328125,4.1796875-0.986328125q2.197265625,0,3.369140625,0.95703125t1.171875,2.91015625l0,7.275390625l-2.080078125,0z M102.58193359375,26.93359375l-1.15234375,0.0390625q-1.298828125,0.0390625-1.93359375,0.46875t-0.634765625,1.30859375q0,1.259765625,1.4453125,1.259765625q1.03515625,0,1.6552734375-0.595703125t0.6201171875-1.58203125l0-0.8984375z M114.581640625,29.814453125q0.78125,0,1.875-0.341796875l0,2.216796875q-1.11328125,0.498046875-2.734375,0.498046875q-1.787109375,0-2.6025390625-0.9033203125t-0.8154296875-2.7099609375l0-5.263671875l-1.42578125,0l0-1.259765625l1.640625-0.99609375l0.859375-2.3046875l1.904296875,0l0,2.32421875l3.056640625,0l0,2.236328125l-3.056640625,0l0,5.263671875q0,0.634765625,0.3564453125,0.9375t0.9423828125,0.302734375z M124.55986328125,22.98828125q-0.947265625,0-1.484375,0.6005859375t-0.615234375,1.7041015625l4.1796875,0q-0.01953125-1.103515625-0.576171875-1.7041015625t-1.50390625-0.6005859375z M124.97978515625,32.1875q-2.63671875,0-4.12109375-1.455078125t-1.484375-4.12109375q0-2.744140625,1.3720703125-4.2431640625t3.7939453125-1.4990234375q2.314453125,0,3.603515625,1.318359375t1.2890625,3.642578125l0,1.4453125l-7.041015625,0q0.048828125,1.26953125,0.751953125,1.982421875t1.97265625,0.712890625q0.986328125,0,1.865234375-0.205078125t1.8359375-0.654296875l0,2.3046875q-0.78125,0.390625-1.669921875,0.5810546875t-2.16796875,0.1904296875z"/><path fill="#" d=""/></svg>
